# xmcd
# 
# Track frame offsets:
#     150
#     20129
#     40417
#     59057
#     79344
#     100196
#     130075
# 
# Disc length: 1818
# 
# Revision: 3
# Processed by: cddbd v1.5.2PL0 Copyright (c) Steve Scherf et al.
# Submitted via: fre:ac v1.1beta1pre5
# 
DISCID=60071807
DTITLE=Catharsis - Призрачный Свет
DYEAR=2004
DGENRE=Power Metal
TTITLE0=Кто Ты?
TTITLE1=Помни Меня
TTITLE2=Призрачный Свет
TTITLE3=Сердце Мира (Stillife Remix)
TTITLE4=Dancing In The Fire (Necromancer Remix)
TTITLE5=Eerie Light
TTITLE6=Data Track
EXTD=YEAR: 2004
EXTT0=
EXTT1=
EXTT2=
EXTT3=
EXTT4=
EXTT5=
EXTT6=
PLAYORDER=
